<svg width="458.4937255859375px" height="121.40498046875px" xmlns="http://www.w3.org/2000/svg" viewBox="20.753137207031244 14.297509765625001 458.4937255859375 121.40498046875" style="background: rgba(0, 0, 0, 0);" preserveAspectRatio="xMidYMid"><defs><linearGradient id="editing-outline-gradient" x1="-0.41354545764260087" x2="1.4135454576426008" y1="0.09326335692419985" y2="0.9067366430758002"><stop offset="0" stop-color="#ee4208"></stop><stop offset="1" stop-color="#4139ff"></stop></linearGradient><filter id="editing-outline" x="-100%" y="-100%" width="300%" height="300%"><feMorphology in="SourceGraphic" operator="dilate" radius="1" result="outline"></feMorphology><feComposite operator="out" in="outline" in2="SourceAlpha"></feComposite></filter></defs><g filter="url(#editing-outline)"><g transform="translate(89.102818608284, 97.43000030517578)"><path d="M26.05-29.57L26.05-29.57L26.05-29.57Q27.01-31.49 27.01-33.28L27.01-33.28L27.01-33.28Q27.01-35.07 26.82-36.06L26.82-36.06L26.82-36.06Q26.62-37.06 26.18-37.82L26.18-37.82L26.18-37.82Q25.22-39.49 23.30-39.49L23.30-39.49L23.30-39.49Q20.93-39.49 19.01-37.76L19.01-37.76L19.01-37.76Q16.96-35.97 16.96-33.15L16.96-33.15L16.96-33.15Q16.96-31.36 18.21-29.98L18.21-29.98L18.21-29.98Q19.46-28.61 21.38-27.33L21.38-27.33L21.38-27.33Q23.30-26.05 25.47-24.77L25.47-24.77L25.47-24.77Q27.65-23.49 29.57-21.95L29.57-21.95L29.57-21.95Q33.98-18.43 33.98-13.70L33.98-13.70L33.98-13.70Q33.98-10.50 32.29-7.78L32.29-7.78L32.29-7.78Q30.59-5.06 27.78-3.07L27.78-3.07L27.78-3.07Q21.63 1.28 13.50 1.28L13.50 1.28L13.50 1.28Q6.91 1.28 3.52-0.86L3.52-0.86L3.52-0.86Q0.13-3.01 0.13-6.27L0.13-6.27L0.13-6.27Q0.13-12.10 4.67-13.57L4.67-13.57L4.67-13.57Q5.95-14.02 7.90-14.02L7.90-14.02L7.90-14.02Q9.86-14.02 12.10-13.18L12.10-13.18L12.10-13.18Q11.07-10.56 11.07-8.19L11.07-8.19L11.07-8.19Q11.07-3.07 14.72-3.07L14.72-3.07L14.72-3.07Q17.09-3.07 19.04-4.80L19.04-4.80L19.04-4.80Q20.99-6.53 20.99-8.48L20.99-8.48L20.99-8.48Q20.99-10.43 19.74-11.84L19.74-11.84L19.74-11.84Q18.50-13.25 16.64-14.37L16.64-14.37L16.64-14.37Q14.78-15.49 12.64-16.58L12.64-16.58L12.64-16.58Q10.50-17.66 8.64-19.20L8.64-19.20L8.64-19.20Q4.29-22.72 4.29-28.35L4.29-28.35L4.29-28.35Q4.29-32 6.08-34.85L6.08-34.85L6.08-34.85Q7.87-37.70 10.75-39.62L10.75-39.62L10.75-39.62Q16.51-43.52 23.58-43.52L23.58-43.52L23.58-43.52Q30.66-43.52 34.08-41.41L34.08-41.41L34.08-41.41Q37.50-39.30 37.50-35.71L37.50-35.71L37.50-35.71Q37.50-32.58 35.07-30.59L35.07-30.59L35.07-30.59Q32.96-28.93 30.40-28.93L30.40-28.93L30.40-28.93Q27.84-28.93 26.05-29.57ZM63.87-42.69L63.87-42.69L63.87-42.69Q79.55-42.69 79.55-31.62L79.55-31.62L79.55-31.62Q79.55-25.54 75.65-21.89L75.65-21.89L75.65-21.89Q71.81-18.24 65.09-18.24L65.09-18.24L65.09-18.24Q61.95-18.24 59.52-20.03L59.52-20.03L59.52-20.03Q58.37-20.80 57.60-21.82L57.60-21.82L57.60-21.82Q62.27-21.82 64.74-24.67L64.74-24.67L64.74-24.67Q67.20-27.52 67.20-33.09L67.20-33.09L67.20-33.09Q67.20-38.66 61.70-38.66L61.70-38.66L60.16-38.66L60.16-38.66Q59.78-38.66 59.46-38.59L59.46-38.59L52.10 0L38.21 0L46.08-41.92L46.08-41.92Q52.93-42.56 56.90-42.62L56.90-42.62L56.90-42.62Q60.86-42.69 63.87-42.69ZM106.43 1.28L106.43 1.28L106.43 1.28Q98.24 1.28 97.47-10.37L97.47-10.37L86.46-10.37L86.46-10.37Q85.18-7.42 84.29-4.86L84.29-4.86L82.62 0L73.66 0L93.82-42.24L107.58-42.24L110.27-11.14L110.27-11.14Q110.91-4.42 113.47-2.43L113.47-2.43L113.47-2.43Q111.62 1.28 106.43 1.28ZM91.97-23.17L88.45-15.04L97.28-15.04L96.51-31.49L96.51-33.22L91.97-23.17ZM130.43 0L116.48 0L124.61-42.24L138.69-42.24L130.43 0ZM178.24-29.57L178.24-29.57L178.24-29.57Q179.20-31.49 179.20-33.28L179.20-33.28L179.20-33.28Q179.20-35.07 179.01-36.06L179.01-36.06L179.01-36.06Q178.82-37.06 178.37-37.82L178.37-37.82L178.37-37.82Q177.41-39.49 175.49-39.49L175.49-39.49L175.49-39.49Q173.12-39.49 171.20-37.76L171.20-37.76L171.20-37.76Q169.15-35.97 169.15-33.15L169.15-33.15L169.15-33.15Q169.15-31.36 170.40-29.98L170.40-29.98L170.40-29.98Q171.65-28.61 173.57-27.33L173.57-27.33L173.57-27.33Q175.49-26.05 177.66-24.77L177.66-24.77L177.66-24.77Q179.84-23.49 181.76-21.95L181.76-21.95L181.76-21.95Q186.18-18.43 186.18-13.70L186.18-13.70L186.18-13.70Q186.18-10.50 184.48-7.78L184.48-7.78L184.48-7.78Q182.78-5.06 179.97-3.07L179.97-3.07L179.97-3.07Q173.82 1.28 165.70 1.28L165.70 1.28L165.70 1.28Q159.10 1.28 155.71-0.86L155.71-0.86L155.71-0.86Q152.32-3.01 152.32-6.27L152.32-6.27L152.32-6.27Q152.32-12.10 156.86-13.57L156.86-13.57L156.86-13.57Q158.14-14.02 160.10-14.02L160.10-14.02L160.10-14.02Q162.05-14.02 164.29-13.18L164.29-13.18L164.29-13.18Q163.26-10.56 163.26-8.19L163.26-8.19L163.26-8.19Q163.26-3.07 166.91-3.07L166.91-3.07L166.91-3.07Q169.28-3.07 171.23-4.80L171.23-4.80L171.23-4.80Q173.18-6.53 173.18-8.48L173.18-8.48L173.18-8.48Q173.18-10.43 171.94-11.84L171.94-11.84L171.94-11.84Q170.69-13.25 168.83-14.37L168.83-14.37L168.83-14.37Q166.98-15.49 164.83-16.58L164.83-16.58L164.83-16.58Q162.69-17.66 160.83-19.20L160.83-19.20L160.83-19.20Q156.48-22.72 156.48-28.35L156.48-28.35L156.48-28.35Q156.48-32 158.27-34.85L158.27-34.85L158.27-34.85Q160.06-37.70 162.94-39.62L162.94-39.62L162.94-39.62Q168.70-43.52 175.78-43.52L175.78-43.52L175.78-43.52Q182.85-43.52 186.27-41.41L186.27-41.41L186.27-41.41Q189.70-39.30 189.70-35.71L189.70-35.71L189.70-35.71Q189.70-32.58 187.26-30.59L187.26-30.59L187.26-30.59Q185.15-28.93 182.59-28.93L182.59-28.93L182.59-28.93Q180.03-28.93 178.24-29.57ZM214.91-4.80L214.91-4.80L214.91-4.80Q214.91-9.28 216.70-18.24L216.70-18.24L207.23-18.24L203.71 0L190.34 0L198.46-42.24L211.97-42.24L208.26-23.36L217.73-23.36L221.25-42.24L234.75-42.24L234.75-42.24Q233.86-37.50 232.70-32.19L232.70-32.19L230.53-21.76L230.53-21.76Q228.10-9.60 228.10-4.29L228.10-4.29L228.10-4.29Q228.10-2.11 228.80-0.90L228.80-0.90L228.80-0.90Q225.60 1.28 221.86 1.28L221.86 1.28L221.86 1.28Q218.11 1.28 216.51-0.51L216.51-0.51L216.51-0.51Q214.91-2.30 214.91-4.80ZM237.25-15.62L237.25-15.62L237.25-15.62Q237.25-27.71 243.52-35.33L243.52-35.33L243.52-35.33Q250.18-43.58 261.76-43.58L261.76-43.58L261.76-43.58Q270.14-43.58 274.37-39.52L274.37-39.52L274.37-39.52Q278.59-35.46 278.59-26.88L278.59-26.88L278.59-26.88Q278.59-13.82 271.94-6.21L271.94-6.21L271.94-6.21Q265.34 1.28 254.27 1.28L254.27 1.28L254.27 1.28Q245.63 1.28 241.44-3.04L241.44-3.04L241.44-3.04Q237.25-7.36 237.25-15.62ZM254.08-28.86L254.08-28.86L254.08-28.86Q251.20-17.34 251.20-8.26L251.20-8.26L251.20-8.26Q251.20-6.08 251.94-4.67L251.94-4.67L251.94-4.67Q252.67-3.26 254.62-3.26L254.62-3.26L254.62-3.26Q256.58-3.26 257.79-4.19L257.79-4.19L257.79-4.19Q259.01-5.12 259.97-7.23L259.97-7.23L259.97-7.23Q261.50-10.69 262.94-18.02L262.94-18.02L262.94-18.02Q264.38-25.34 264.51-28.38L264.51-28.38L264.51-28.38Q264.64-31.42 264.64-33.73L264.64-33.73L264.64-33.73Q264.64-36.03 263.94-37.50L263.94-37.50L263.94-37.50Q263.23-38.98 261.34-38.98L261.34-38.98L261.34-38.98Q259.46-38.98 258.18-37.82L258.18-37.82L258.18-37.82Q255.81-35.65 254.08-28.86ZM306.75-42.69L306.75-42.69L306.75-42.69Q322.43-42.69 322.43-31.62L322.43-31.62L322.43-31.62Q322.43-25.54 318.53-21.89L318.53-21.89L318.53-21.89Q314.69-18.24 307.97-18.24L307.97-18.24L307.97-18.24Q304.83-18.24 302.40-20.03L302.40-20.03L302.40-20.03Q301.25-20.80 300.48-21.82L300.48-21.82L300.48-21.82Q305.15-21.82 307.62-24.67L307.62-24.67L307.62-24.67Q310.08-27.52 310.08-33.09L310.08-33.09L310.08-33.09Q310.08-38.66 304.58-38.66L304.58-38.66L303.04-38.66L303.04-38.66Q302.66-38.66 302.34-38.59L302.34-38.59L294.98 0L281.09 0L288.96-41.92L288.96-41.92Q295.81-42.56 299.78-42.62L299.78-42.62L299.78-42.62Q303.74-42.69 306.75-42.69Z" fill="url(#editing-outline-gradient)"></path></g></g><style>text {
  font-size: 64px;
  font-family: Arial Black;
  dominant-baseline: central;
  text-anchor: middle;
}</style></svg>