<svg width="415.25px" height="144.82250366210937px" xmlns="http://www.w3.org/2000/svg" viewBox="42.375 2.5887481689453153 415.25 144.82250366210937" style="background: rgba(0, 0, 0, 0);" preserveAspectRatio="xMidYMid"><defs><filter id="editing-extrusion" x="-100%" y="-100%" width="300%" height="300%"><feFlood result="color1" flood-color="#444"></feFlood><feConvolveMatrix order="8,8" divisor="1" kernelMatrix="1 0 0 0 0 0 0 0 0 1 0 0 0 0 0 0 0 0 1 0 0 0 0 0 0 0 0 1 0 0 0 0 0 0 0 0 1 0 0 0 0 0 0 0 0 1 0 0 0 0 0 0 0 0 1 0 0 0 0 0 0 0 0 1" in="SourceAlpha" result="extrude"></feConvolveMatrix><feComposite in="color1" in2="extrude" result="comp-extrude" operator="in"></feComposite><feOffset dx="4" dy="4" in="comp-extrude" result="offset-extrude"></feOffset><feMerge><feMergeNode in="offset-extrude"></feMergeNode><feMergeNode in="SourceGraphic"></feMergeNode></feMerge></filter></defs><g filter="url(#editing-extrusion)"><g transform="translate(104.39999151229858, 101.84499931335449)"><path d="M17.86-14.53L15.17-15.42L15.17-15.42Q12.35-16.38 10.05-17.38L10.05-17.38L10.05-17.38Q7.74-18.37 6.08-19.78L6.08-19.78L6.08-19.78Q4.42-21.18 3.49-23.14L3.49-23.14L3.49-23.14Q2.56-25.09 2.56-27.90L2.56-27.90L2.56-27.90Q2.56-33.34 6.75-36.61L6.75-36.61L6.75-36.61Q10.94-39.87 18.50-39.87L18.50-39.87L18.50-39.87Q21.25-39.87 23.62-39.49L23.62-39.49L23.62-39.49Q25.98-39.10 27.68-38.30L27.68-38.30L27.68-38.30Q29.38-37.50 30.34-36.26L30.34-36.26L30.34-36.26Q31.30-35.01 31.30-33.34L31.30-33.34L31.30-33.34Q31.30-31.68 30.53-30.50L30.53-30.50L30.53-30.50Q29.76-29.31 28.67-28.48L28.67-28.48L28.67-28.48Q27.26-29.38 24.90-30.05L24.90-30.05L24.90-30.05Q22.53-30.72 19.71-30.72L19.71-30.72L19.71-30.72Q16.83-30.72 15.49-29.92L15.49-29.92L15.49-29.92Q14.14-29.12 14.14-27.90L14.14-27.90L14.14-27.90Q14.14-26.94 14.98-26.34L14.98-26.34L14.98-26.34Q15.81-25.73 17.47-25.22L17.47-25.22L20.86-24.13L20.86-24.13Q26.88-22.21 30.11-19.23L30.11-19.23L30.11-19.23Q33.34-16.26 33.34-11.14L33.34-11.14L33.34-11.14Q33.34-5.70 29.06-2.34L29.06-2.34L29.06-2.34Q24.77 1.02 16.45 1.02L16.45 1.02L16.45 1.02Q13.50 1.02 10.98 0.54L10.98 0.54L10.98 0.54Q8.45 0.06 6.56-0.86L6.56-0.86L6.56-0.86Q4.67-1.79 3.62-3.17L3.62-3.17L3.62-3.17Q2.56-4.54 2.56-6.34L2.56-6.34L2.56-6.34Q2.56-8.19 3.65-9.50L3.65-9.50L3.65-9.50Q4.74-10.82 6.02-11.52L6.02-11.52L6.02-11.52Q7.81-10.11 10.40-9.09L10.40-9.09L10.40-9.09Q12.99-8.06 16.06-8.06L16.06-8.06L16.06-8.06Q19.20-8.06 20.48-9.02L20.48-9.02L20.48-9.02Q21.76-9.98 21.76-11.26L21.76-11.26L21.76-11.26Q21.76-12.54 20.74-13.22L20.74-13.22L20.74-13.22Q19.71-13.89 17.86-14.53L17.86-14.53ZM50.56-20.80L53.95-20.80L53.95-20.80Q56.64-20.80 58.08-22.05L58.08-22.05L58.08-22.05Q59.52-23.30 59.52-25.86L59.52-25.86L59.52-25.86Q59.52-28.29 58.02-29.60L58.02-29.60L58.02-29.60Q56.51-30.91 53.63-30.91L53.63-30.91L53.63-30.91Q52.61-30.91 51.94-30.88L51.94-30.88L51.94-30.88Q51.26-30.85 50.56-30.72L50.56-30.72L50.56-20.80ZM50.62-12.03L50.62-0.26L50.62-0.26Q49.92-0.06 48.42 0.13L48.42 0.13L48.42 0.13Q46.91 0.32 45.44 0.32L45.44 0.32L45.44 0.32Q43.97 0.32 42.85 0.10L42.85 0.10L42.85 0.10Q41.73-0.13 40.96-0.70L40.96-0.70L40.96-0.70Q40.19-1.28 39.81-2.30L39.81-2.30L39.81-2.30Q39.42-3.33 39.42-4.99L39.42-4.99L39.42-35.14L39.42-35.14Q39.42-36.48 40.16-37.22L40.16-37.22L40.16-37.22Q40.90-37.95 42.18-38.40L42.18-38.40L42.18-38.40Q44.35-39.17 47.14-39.52L47.14-39.52L47.14-39.52Q49.92-39.87 52.74-39.87L52.74-39.87L52.74-39.87Q61.57-39.87 66.24-36.10L66.24-36.10L66.24-36.10Q70.91-32.32 70.91-25.86L70.91-25.86L70.91-25.86Q70.91-22.72 69.92-20.19L69.92-20.19L69.92-20.19Q68.93-17.66 66.98-15.84L66.98-15.84L66.98-15.84Q65.02-14.02 62.05-13.02L62.05-13.02L62.05-13.02Q59.07-12.03 55.17-12.03L55.17-12.03L50.62-12.03ZM82.94-37.63L82.94-37.63L82.94-37.63Q84.03-38.27 86.24-38.85L86.24-38.85L86.24-38.85Q88.45-39.42 90.69-39.42L90.69-39.42L90.69-39.42Q93.89-39.42 96.35-38.50L96.35-38.50L96.35-38.50Q98.82-37.57 99.52-35.58L99.52-35.58L99.52-35.58Q100.67-32.26 102.02-27.84L102.02-27.84L102.02-27.84Q103.36-23.42 104.70-18.72L104.70-18.72L104.70-18.72Q106.05-14.02 107.33-9.44L107.33-9.44L107.33-9.44Q108.61-4.86 109.57-1.34L109.57-1.34L109.57-1.34Q108.80-0.45 107.26 0.10L107.26 0.10L107.26 0.10Q105.73 0.64 103.62 0.64L103.62 0.64L103.62 0.64Q102.08 0.64 101.02 0.38L101.02 0.38L101.02 0.38Q99.97 0.13 99.30-0.38L99.30-0.38L99.30-0.38Q98.62-0.90 98.21-1.73L98.21-1.73L98.21-1.73Q97.79-2.56 97.47-3.65L97.47-3.65L96.32-8.06L84.74-8.06L84.74-8.06Q84.22-6.14 83.71-4.10L83.71-4.10L83.71-4.10Q83.20-2.05 82.69-0.13L82.69-0.13L82.69-0.13Q81.79 0.19 80.80 0.42L80.80 0.42L80.80 0.42Q79.81 0.64 78.40 0.64L78.40 0.64L78.40 0.64Q75.14 0.64 73.57-0.48L73.57-0.48L73.57-0.48Q72-1.60 72-3.58L72-3.58L72-3.58Q72-4.48 72.26-5.38L72.26-5.38L72.26-5.38Q72.51-6.27 72.83-7.49L72.83-7.49L72.83-7.49Q73.28-9.22 74.08-11.78L74.08-11.78L74.08-11.78Q74.88-14.34 75.84-17.31L75.84-17.31L75.84-17.31Q76.80-20.29 77.89-23.42L77.89-23.42L77.89-23.42Q78.98-26.56 79.94-29.34L79.94-29.34L79.94-29.34Q80.90-32.13 81.70-34.30L81.70-34.30L81.70-34.30Q82.50-36.48 82.94-37.63ZM91.01-29.38L90.62-29.38L90.62-29.38Q89.73-26.69 88.61-23.39L88.61-23.39L88.61-23.39Q87.49-20.10 86.59-16.70L86.59-16.70L94.53-16.70L94.53-16.70Q93.63-20.16 92.70-23.46L92.70-23.46L92.70-23.46Q91.78-26.75 91.01-29.38L91.01-29.38ZM126.02-34.05L126.02-0.26L126.02-0.26Q125.31-0.06 123.81 0.13L123.81 0.13L123.81 0.13Q122.30 0.32 120.83 0.32L120.83 0.32L120.83 0.32Q119.36 0.32 118.24 0.10L118.24 0.10L118.24 0.10Q117.12-0.13 116.35-0.70L116.35-0.70L116.35-0.70Q115.58-1.28 115.20-2.30L115.20-2.30L115.20-2.30Q114.82-3.33 114.82-4.99L114.82-4.99L114.82-38.78L114.82-38.78Q115.52-38.91 117.06-39.14L117.06-39.14L117.06-39.14Q118.59-39.36 120-39.36L120-39.36L120-39.36Q121.47-39.36 122.59-39.14L122.59-39.14L122.59-39.14Q123.71-38.91 124.48-38.34L124.48-38.34L124.48-38.34Q125.25-37.76 125.63-36.74L125.63-36.74L125.63-36.74Q126.02-35.71 126.02-34.05L126.02-34.05ZM160.83-14.53L158.14-15.42L158.14-15.42Q155.33-16.38 153.02-17.38L153.02-17.38L153.02-17.38Q150.72-18.37 149.06-19.78L149.06-19.78L149.06-19.78Q147.39-21.18 146.46-23.14L146.46-23.14L146.46-23.14Q145.54-25.09 145.54-27.90L145.54-27.90L145.54-27.90Q145.54-33.34 149.73-36.61L149.73-36.61L149.73-36.61Q153.92-39.87 161.47-39.87L161.47-39.87L161.47-39.87Q164.22-39.87 166.59-39.49L166.59-39.49L166.59-39.49Q168.96-39.10 170.66-38.30L170.66-38.30L170.66-38.30Q172.35-37.50 173.31-36.26L173.31-36.26L173.31-36.26Q174.27-35.01 174.27-33.34L174.27-33.34L174.27-33.34Q174.27-31.68 173.50-30.50L173.50-30.50L173.50-30.50Q172.74-29.31 171.65-28.48L171.65-28.48L171.65-28.48Q170.24-29.38 167.87-30.05L167.87-30.05L167.87-30.05Q165.50-30.72 162.69-30.72L162.69-30.72L162.69-30.72Q159.81-30.72 158.46-29.92L158.46-29.92L158.46-29.92Q157.12-29.12 157.12-27.90L157.12-27.90L157.12-27.90Q157.12-26.94 157.95-26.34L157.95-26.34L157.95-26.34Q158.78-25.73 160.45-25.22L160.45-25.22L163.84-24.13L163.84-24.13Q169.86-22.21 173.09-19.23L173.09-19.23L173.09-19.23Q176.32-16.26 176.32-11.14L176.32-11.14L176.32-11.14Q176.32-5.70 172.03-2.34L172.03-2.34L172.03-2.34Q167.74 1.02 159.42 1.02L159.42 1.02L159.42 1.02Q156.48 1.02 153.95 0.54L153.95 0.54L153.95 0.54Q151.42 0.06 149.54-0.86L149.54-0.86L149.54-0.86Q147.65-1.79 146.59-3.17L146.59-3.17L146.59-3.17Q145.54-4.54 145.54-6.34L145.54-6.34L145.54-6.34Q145.54-8.19 146.62-9.50L146.62-9.50L146.62-9.50Q147.71-10.82 148.99-11.52L148.99-11.52L148.99-11.52Q150.78-10.11 153.38-9.09L153.38-9.09L153.38-9.09Q155.97-8.06 159.04-8.06L159.04-8.06L159.04-8.06Q162.18-8.06 163.46-9.02L163.46-9.02L163.46-9.02Q164.74-9.98 164.74-11.26L164.74-11.26L164.74-11.26Q164.74-12.54 163.71-13.22L163.71-13.22L163.71-13.22Q162.69-13.89 160.83-14.53L160.83-14.53ZM212.29-19.46L212.29-0.06L212.29-0.06Q211.65 0.13 210.27 0.32L210.27 0.32L210.27 0.32Q208.90 0.51 207.42 0.51L207.42 0.51L207.42 0.51Q206.02 0.51 204.90 0.32L204.90 0.32L204.90 0.32Q203.78 0.13 203.01-0.45L203.01-0.45L203.01-0.45Q202.24-1.02 201.82-2.02L201.82-2.02L201.82-2.02Q201.41-3.01 201.41-4.61L201.41-4.61L201.41-18.82L201.41-18.82Q201.41-21.44 200.10-22.50L200.10-22.50L200.10-22.50Q198.78-23.55 196.86-23.55L196.86-23.55L196.86-23.55Q195.58-23.55 194.43-23.23L194.43-23.23L194.43-23.23Q193.28-22.91 192.58-22.46L192.58-22.46L192.58-0.06L192.58-0.06Q191.94 0.13 190.56 0.32L190.56 0.32L190.56 0.32Q189.18 0.51 187.71 0.51L187.71 0.51L187.71 0.51Q186.30 0.51 185.18 0.32L185.18 0.32L185.18 0.32Q184.06 0.13 183.30-0.45L183.30-0.45L183.30-0.45Q182.53-1.02 182.11-2.02L182.11-2.02L182.11-2.02Q181.70-3.01 181.70-4.61L181.70-4.61L181.70-41.73L181.70-41.73Q182.40-41.86 183.78-42.08L183.78-42.08L183.78-42.08Q185.15-42.30 186.56-42.30L186.56-42.30L186.56-42.30Q187.97-42.30 189.09-42.11L189.09-42.11L189.09-42.11Q190.21-41.92 190.98-41.34L190.98-41.34L190.98-41.34Q191.74-40.77 192.16-39.78L192.16-39.78L192.16-39.78Q192.58-38.78 192.58-37.18L192.58-37.18L192.58-30.91L192.58-30.91Q193.41-31.23 195.10-31.65L195.10-31.65L195.10-31.65Q196.80-32.06 198.85-32.06L198.85-32.06L198.85-32.06Q205.18-32.06 208.74-28.90L208.74-28.90L208.74-28.90Q212.29-25.73 212.29-19.46L212.29-19.46ZM251.20-15.55L251.20-15.55L251.20-15.55Q251.20-11.58 249.98-8.48L249.98-8.48L249.98-8.48Q248.77-5.38 246.56-3.26L246.56-3.26L246.56-3.26Q244.35-1.15 241.28-0.06L241.28-0.06L241.28-0.06Q238.21 1.02 234.43 1.02L234.43 1.02L234.43 1.02Q230.66 1.02 227.58-0.13L227.58-0.13L227.58-0.13Q224.51-1.28 222.30-3.42L222.30-3.42L222.30-3.42Q220.10-5.57 218.88-8.64L218.88-8.64L218.88-8.64Q217.66-11.71 217.66-15.55L217.66-15.55L217.66-15.55Q217.66-19.33 218.88-22.40L218.88-22.40L218.88-22.40Q220.10-25.47 222.30-27.62L222.30-27.62L222.30-27.62Q224.51-29.76 227.58-30.91L227.58-30.91L227.58-30.91Q230.66-32.06 234.43-32.06L234.43-32.06L234.43-32.06Q238.21-32.06 241.28-30.88L241.28-30.88L241.28-30.88Q244.35-29.70 246.56-27.55L246.56-27.55L246.56-27.55Q248.77-25.41 249.98-22.34L249.98-22.34L249.98-22.34Q251.20-19.26 251.20-15.55ZM228.80-15.55L228.80-15.55L228.80-15.55Q228.80-11.65 230.30-9.57L230.30-9.57L230.30-9.57Q231.81-7.49 234.50-7.49L234.50-7.49L234.50-7.49Q237.18-7.49 238.62-9.60L238.62-9.60L238.62-9.60Q240.06-11.71 240.06-15.55L240.06-15.55L240.06-15.55Q240.06-19.39 238.59-21.47L238.59-21.47L238.59-21.47Q237.12-23.55 234.43-23.55L234.43-23.55L234.43-23.55Q231.74-23.55 230.27-21.47L230.27-21.47L230.27-21.47Q228.80-19.39 228.80-15.55ZM270.78-32.06L270.78-32.06L270.78-32.06Q274.62-32.06 277.92-31.07L277.92-31.07L277.92-31.07Q281.22-30.08 283.58-28.03L283.58-28.03L283.58-28.03Q285.95-25.98 287.30-22.88L287.30-22.88L287.30-22.88Q288.64-19.78 288.64-15.49L288.64-15.49L288.64-15.49Q288.64-11.39 287.49-8.32L287.49-8.32L287.49-8.32Q286.34-5.25 284.22-3.17L284.22-3.17L284.22-3.17Q282.11-1.09 279.14-0.06L279.14-0.06L279.14-0.06Q276.16 0.96 272.51 0.96L272.51 0.96L272.51 0.96Q269.76 0.96 267.39 0.13L267.39 0.13L267.39 10.75L267.39 10.75Q266.75 10.94 265.34 11.17L265.34 11.17L265.34 11.17Q263.94 11.39 262.46 11.39L262.46 11.39L262.46 11.39Q261.06 11.39 259.94 11.20L259.94 11.20L259.94 11.20Q258.82 11.01 258.05 10.43L258.05 10.43L258.05 10.43Q257.28 9.86 256.90 8.86L256.90 8.86L256.90 8.86Q256.51 7.87 256.51 6.27L256.51 6.27L256.51-24.45L256.51-24.45Q256.51-26.18 257.25-27.26L257.25-27.26L257.25-27.26Q257.98-28.35 259.26-29.25L259.26-29.25L259.26-29.25Q261.25-30.53 264.19-31.30L264.19-31.30L264.19-31.30Q267.14-32.06 270.78-32.06ZM270.91-7.62L270.91-7.62L270.91-7.62Q277.50-7.62 277.50-15.49L277.50-15.49L277.50-15.49Q277.50-19.58 275.87-21.57L275.87-21.57L275.87-21.57Q274.24-23.55 271.17-23.55L271.17-23.55L271.17-23.55Q269.95-23.55 268.99-23.26L268.99-23.26L268.99-23.26Q268.03-22.98 267.33-22.59L267.33-22.59L267.33-8.51L267.33-8.51Q268.10-8.13 268.99-7.87L268.99-7.87L268.99-7.87Q269.89-7.62 270.91-7.62Z" fill="#ccc"></path></g></g><style>text {
  font-size: 64px;
  font-family: Arial Black;
  dominant-baseline: central;
  text-anchor: middle;
}</style></svg>